<mxfile host="app.diagrams.net" modified="2024-05-27T09:09:38.527Z" agent="Mozilla/5.0 (Windows NT 10.0; Win64; x64) AppleWebKit/537.36 (KHTML, like Gecko) Chrome/124.0.0.0 Safari/537.36" version="24.4.8" etag="Lxza7zM5Gbx7elvQZp5z" type="github">
  <diagram name="Страница — 1" id="ql58906s2gM_iXadfj2g">
    <mxGraphModel>
      <root>
        <mxCell id="0" />
        <mxCell id="1" parent="0" />
      </root>
    </mxGraphModel>
  </diagram>
</mxfile>
